<?xml version="1.0" encoding="UTF-8"?>
<svg width="24px" height="24px" viewBox="0 0 24 24" version="1.1" xmlns="http://www.w3.org/2000/svg" xmlns:xlink="http://www.w3.org/1999/xlink">
    <title>Dribbble Icon</title>
    <g id="Dribbble-Icon" stroke="none" stroke-width="1" fill="none" fill-rule="evenodd">
        <path d="M11.9811024,0 C5.36692913,0 0,5.36692913 0,11.9811024 C0,18.5952756 5.36692913,24 11.9811024,24 C18.5952756,24 24,18.5952756 24,11.9811024 C24,5.36692913 18.5952756,0 11.9811024,0 Z M22.6393701,12.5858268 C20.1448819,12.3968504 17.4614173,12.623622 14.8535433,13.303937 C14.4377953,12.1700787 14.0220472,11.0740157 13.5307087,10.015748 C16.2519685,9.14645669 18.784252,7.82362205 20.9385827,6.1984252 C21.9968504,7.86141732 22.6393701,9.82677165 22.6393701,11.9811024 C22.6771654,12.207874 22.6393701,12.3968504 22.6393701,12.5858268 Z M20.1826772,5.14015748 C18.103937,6.72755906 15.6472441,7.97480315 12.9637795,8.84409449 C11.6031496,6.04724409 10.015748,3.66614173 8.35275591,1.92755906 C9.48661417,1.51181102 10.696063,1.28503937 11.9811024,1.28503937 C15.2692913,1.32283465 18.2173228,2.79685039 20.1826772,5.14015748 Z M7.06771654,2.53228346 C8.69291339,4.15748031 10.280315,6.46299213 11.6787402,9.22204724 C8.23937008,10.0913386 4.72440945,10.2425197 1.58740157,9.6 C2.26771654,6.5007874 4.30866142,3.93070866 7.06771654,2.53228346 Z M1.36062992,10.8850394 C2.75905512,11.1496063 4.19527559,11.3007874 5.66929134,11.3007874 C7.82362205,11.3007874 10.0535433,10.9984252 12.2456693,10.3937008 C12.7370079,11.4141732 13.1527559,12.5102362 13.5685039,13.6440945 C9.86456693,14.7779528 6.57637795,16.6299213 4.00629921,19.0488189 C2.34330709,17.1590551 1.28503937,14.6645669 1.28503937,11.9433071 C1.32283465,11.6031496 1.32283465,11.2629921 1.36062992,10.8850394 Z M4.9511811,19.9937008 C7.37007874,17.7259843 10.5070866,15.9496063 14.0220472,14.8913386 C14.1732283,15.3826772 14.3244094,15.8362205 14.4755906,16.3275591 C15.0425197,18.2551181 15.4582677,20.1448819 15.7228346,21.9590551 C14.5511811,22.4125984 13.303937,22.6393701 11.9811024,22.6393701 C9.2976378,22.6771654 6.84094488,21.6566929 4.9511811,19.9937008 Z M16.9700787,21.4299213 C16.6677165,19.6535433 16.2897638,17.8393701 15.7228346,15.9874016 C15.5716535,15.496063 15.4204724,15.0425197 15.2692913,14.5889764 C17.688189,13.984252 20.1448819,13.7952756 22.4503937,13.9464567 C21.8834646,17.1590551 19.8047244,19.9181102 16.9700787,21.4299213 Z" id="Shape" fill="#FFFFFF" fill-rule="nonzero"></path>
    </g>
</svg>