<?xml version="1.0" encoding="UTF-8"?>
<svg width="24px" height="24px" viewBox="0 0 24 24" version="1.1" xmlns="http://www.w3.org/2000/svg" xmlns:xlink="http://www.w3.org/1999/xlink">
    <title>Behance Icon</title>
    <g id="Behance-Icon" stroke="none" stroke-width="1" fill="none" fill-rule="evenodd">
        <path d="M18.5660377,9.08056872 C21.5471698,9.08056872 24,11.507109 24,14.5023697 C24,14.8815166 23.6981132,15.1848341 23.3207547,15.1848341 L23.3207547,15.1848341 L14.5283019,15.1848341 C14.8301887,17.1184834 16.5283019,18.6350711 18.5660377,18.6350711 C19.5849057,18.6350711 20.5283019,18.2559242 21.2830189,17.6113744 C21.5849057,17.3838863 22,17.4218009 22.2264151,17.6872038 C22.4528302,17.9905213 22.4150943,18.4075829 22.1509434,18.6350711 C21.1698113,19.507109 19.8867925,20 18.5660377,20 C15.5849057,20 13.1320755,17.535545 13.1320755,14.5402844 C13.1320755,11.5450237 15.5849057,9.08056872 18.5660377,9.08056872 Z M6.45283019,4 C7.77358491,4 8.98113208,4.60663507 9.81132075,5.63033175 C10.6415094,6.65402844 10.9433962,8.01895735 10.6415094,9.30805687 C10.4150943,10.3696682 9.66037736,11.3175355 8.67924528,11.9241706 C9.01886792,12.1516588 9.35849057,12.4549763 9.62264151,12.7962085 C10.4528302,13.7061611 10.8301887,14.957346 10.6792453,16.1706161 C10.4150943,18.3317536 8.52830189,19.9620853 6.26415094,19.9620853 L6.26415094,19.9620853 L2.1509434,19.9620853 C0.943396226,19.9620853 0,18.9763033 0,17.8009479 L0,17.8009479 L0,6.16113744 C0,4.9478673 0.981132075,4 2.1509434,4 L2.1509434,4 Z M6.41509434,12.6445498 L1.32075472,12.6445498 L1.32075472,17.7630332 C1.32075472,18.2180095 1.69811321,18.5971564 2.1509434,18.5971564 L2.1509434,18.5971564 L6.30188679,18.5971564 C7.8490566,18.5971564 9.20754717,17.4597156 9.39622642,15.9810427 C9.50943396,15.1090047 9.24528302,14.2748815 8.64150943,13.6303318 C8.0754717,13.0236967 7.28301887,12.6445498 6.41509434,12.6445498 L6.41509434,12.6445498 Z M18.5660377,10.4075829 C16.490566,10.4075829 14.7924528,11.9241706 14.490566,13.8578199 L14.490566,13.8578199 L22.6037736,13.8578199 C22.3018868,11.9241706 20.6037736,10.4075829 18.5660377,10.4075829 Z M6.45283019,5.32701422 L2.18867925,5.32701422 C1.73584906,5.32701422 1.35849057,5.70616114 1.35849057,6.16113744 L1.35849057,6.16113744 L1.35849057,11.3175355 L6.30188679,11.3175355 C7.66037736,11.3175355 9.09433962,10.2180095 9.35849057,9.00473934 C9.58490566,8.09478673 9.35849057,7.18483412 8.79245283,6.46445498 C8.22641509,5.74407583 7.35849057,5.32701422 6.45283019,5.32701422 L6.45283019,5.32701422 Z M22.8301887,4.30331754 C23.2075472,4.30331754 23.509434,4.60663507 23.509434,4.98578199 C23.509434,5.36492891 23.2075472,5.66824645 22.8301887,5.66824645 L22.8301887,5.66824645 L14.8679245,5.66824645 C14.490566,5.66824645 14.1886792,5.36492891 14.1886792,4.98578199 C14.1886792,4.60663507 14.490566,4.30331754 14.8679245,4.30331754 L14.8679245,4.30331754 Z" id="Combined-Shape" fill="#FFFFFF" fill-rule="nonzero"></path>
    </g>
</svg>