<?xml version="1.0" encoding="UTF-8"?>
<svg width="24px" height="24px" viewBox="0 0 24 24" version="1.1" xmlns="http://www.w3.org/2000/svg" xmlns:xlink="http://www.w3.org/1999/xlink">
    <title>Instagram Icon</title>
    <g id="Instagram-Icon" stroke="none" stroke-width="1" fill="none" fill-rule="evenodd">
        <path d="M18.0283465,0 C21.3165354,0 24,2.64984227 24,5.94321767 L24,5.94321767 L24,18.0189274 C24,21.3123028 21.3543307,24 18.0661417,24 L18.0661417,24 L5.97165354,24 C2.68346457,24 0,21.3501577 0,18.0567823 L0,18.0567823 L0,5.94321767 C0,2.64984227 2.64566929,0 5.93385827,0 L5.93385827,0 Z M18.0283465,1.32492114 L5.93385827,1.32492114 C3.4015748,1.32492114 1.32283465,3.40694006 1.32283465,5.94321767 L1.32283465,5.94321767 L1.32283465,18.0567823 C1.32283465,20.6309148 3.4015748,22.7129338 5.93385827,22.7129338 L5.93385827,22.7129338 L18.0661417,22.7129338 C20.5984252,22.7129338 22.6771654,20.6309148 22.6771654,18.0567823 L22.6771654,18.0567823 L22.6771654,5.98107256 C22.6771654,3.40694006 20.5984252,1.32492114 18.0283465,1.32492114 L18.0283465,1.32492114 Z M11.9811024,6.43533123 C15.0425197,6.43533123 17.5370079,8.93375394 17.5370079,12 C17.5370079,15.0662461 15.0425197,17.5646688 11.9811024,17.5646688 C8.91968504,17.5646688 6.42519685,15.0662461 6.42519685,12 C6.42519685,8.93375394 8.91968504,6.43533123 11.9811024,6.43533123 Z M11.9811024,7.76025237 C9.63779528,7.76025237 7.7480315,9.65299685 7.7480315,12 C7.7480315,14.3470032 9.63779528,16.2397476 11.9811024,16.2397476 C14.3244094,16.2397476 16.2141732,14.3470032 16.2141732,12 C16.2141732,9.65299685 14.3244094,7.76025237 11.9811024,7.76025237 Z M18.0661417,3.70977918 C18.8598425,3.70977918 19.5023622,4.3533123 19.5023622,5.14826498 C19.5023622,5.94321767 18.8598425,6.58675079 18.0661417,6.58675079 C17.2724409,6.58675079 16.6299213,5.94321767 16.6299213,5.14826498 C16.6299213,4.3533123 17.2724409,3.70977918 18.0661417,3.70977918 Z" id="Combined-Shape" fill="#FFFFFF" fill-rule="nonzero"></path>
    </g>
</svg>