<?xml version="1.0" encoding="UTF-8"?>
<svg width="24px" height="24px" viewBox="0 0 24 24" version="1.1" xmlns="http://www.w3.org/2000/svg" xmlns:xlink="http://www.w3.org/1999/xlink">
    <title>Website Design Icon</title>
    <g id="Website-Design-Icon" stroke="none" stroke-width="1" fill="none" fill-rule="evenodd">
        <path d="M18.9237218,18.88 L18.1969496,18.88 L19.2467317,14.08 C19.2871079,13.88 19.2467317,13.64 19.1659792,13.44 L12.9076628,0.56 C12.7057816,0.2 12.3827717,0 12.0193856,0 C12.0193856,0 12.0193856,0 12.0193856,0 C11.6559995,0 11.2926134,0.2 11.1311084,0.56 L4.87279199,13.44 C4.79203952,13.64 4.75166329,13.84 4.79203952,14.08 L5.84182164,18.88 L5.11504941,18.88 C4.22677223,18.88 3.5,19.6 3.5,20.48 L3.5,22.4 C3.5,23.28 4.22677223,24 5.11504941,24 L18.8833456,24 C19.7716228,24 20.498395,23.28 20.498395,22.4 L20.498395,20.48 C20.5387712,19.6 19.811999,18.88 18.9237218,18.88 Z M12.0193856,10 C13.2306727,10 14.1997023,10.96 14.1997023,12.16 C14.1997023,13.36 13.2306727,14.28 12.0193856,14.28 C10.8080986,14.28 9.83906891,13.32 9.83906891,12.12 C9.83906891,10.92 10.8080986,10 12.0193856,10 Z M12.0193856,0.8 C12.0193856,0.8 12.0193856,0.8 12.0193856,0.8 C12.0597618,0.8 12.1001381,0.8 12.1405143,0.84 C12.0597618,0.84 12.0597618,0.8 12.0193856,0.8 C11.9790094,0.8 11.9386331,0.84 11.8982569,0.84 C11.9386331,0.8 11.9790094,0.8 12.0193856,0.8 Z M5.59956423,13.92 C5.59956423,13.88 5.59956423,13.84 5.59956423,13.8 L11.6156233,1.36 L11.6156233,9.16 C11.6156233,9.16 11.6156233,9.2 11.6156233,9.2 C10.1620788,9.4 9.03154421,10.64 9.03154421,12.12 C9.03154421,13.76 10.36396,15.08 12.0193856,15.08 C13.6748113,15.08 15.007227,13.76 15.007227,12.12 C15.007227,10.64 13.8766924,9.4 12.423148,9.2 C12.423148,9.2 12.423148,9.16 12.423148,9.16 L12.423148,1.44 L18.439207,13.8 C18.439207,13.84 18.4795832,13.88 18.439207,13.92 L17.3490486,18.88 L6.68972257,18.88 L5.59956423,13.92 Z M19.7312465,22.4 C19.7312465,22.84 19.3678604,23.2 18.9237218,23.2 L5.11504941,23.2 C4.67091082,23.2 4.3075247,22.84 4.3075247,22.4 L4.3075247,20.48 C4.3075247,20.04 4.67091082,19.68 5.11504941,19.68 L6.36671269,19.68 L17.6720585,19.68 L18.9237218,19.68 C19.3678604,19.68 19.7312465,20.04 19.7312465,20.48 L19.7312465,22.4 Z" id="Shape" fill="#1C211C" fill-rule="nonzero"></path>
    </g>
</svg>