<?xml version="1.0" encoding="UTF-8"?>
<svg width="64px" height="64px" viewBox="0 0 64 64" version="1.1" xmlns="http://www.w3.org/2000/svg" xmlns:xlink="http://www.w3.org/1999/xlink">
    <title>Logotype 1</title>
    <g id="Logotype-1" stroke="none" stroke-width="1" fill="none" fill-rule="evenodd">
        <g id="Group" transform="translate(0.000000, 8.000000)" fill="#FFFFFF" fill-rule="nonzero">
            <path d="M21.5370218,0 L34.3524764,0 L29.208379,14.3755478 C20.1543347,15.9665805 13.2293636,24.7263751 13.2293636,35.2940967 C13.2293636,40.0613561 14.6386819,44.4607639 17.0168354,48 L0,48 L15.5566757,4.52598406 C16.5347677,1.7924468 18.9032371,0 21.5370218,0 Z" id="Path" fill-opacity="0.9"></path>
            <path d="M42.4630352,0 L29.6475805,0 L34.7700312,14.31488 C44.0042279,15.7297485 51.1178961,24.5832505 51.1178961,35.2940967 C51.1178961,40.0613561 49.7085778,44.4607639 47.3304243,48 L64,48 L48.4433813,4.5259983 C47.4652893,1.7924468 45.0968199,0 42.4630352,0 Z" id="Path"></path>
            <path d="M19.2514367,46.6164623 C17.0614107,43.4976279 15.7554841,39.5663301 15.7554841,35.2939543 C15.7554841,25.1578851 23.1062699,16.9411095 32.1738435,16.9411095 C41.2415595,16.9411095 48.5923452,25.1578851 48.5923452,35.2939543 C48.5923452,39.5663301 47.2864187,43.4976279 45.0963926,46.6164623 C41.5011782,43.9399613 37.0254247,42.3527736 32.1738435,42.3527736 C27.3224046,42.3527736 22.8466511,43.9399613 19.2514367,46.6164623 Z" id="Path"></path>
        </g>
    </g>
</svg>