<?xml version="1.0" encoding="UTF-8"?>
<svg width="64px" height="64px" viewBox="0 0 64 64" version="1.1" xmlns="http://www.w3.org/2000/svg" xmlns:xlink="http://www.w3.org/1999/xlink">
    <title>Logotype 2</title>
    <g id="Logotype-2" stroke="none" stroke-width="1" fill="none" fill-rule="evenodd">
        <path d="M20.1849783,52.0403735 C23.1186147,49.9908366 27.8750309,49.9908366 30.8086673,52.0403735 C33.7423036,54.090063 33.7423036,57.4131578 30.8086673,59.4628473 C27.8750309,61.5123842 23.1186147,61.5123842 20.1849783,59.4628473 C17.251342,57.4131578 17.251342,54.090063 20.1849783,52.0403735 Z M33.1157135,39.4223206 C36.6361686,36.9628152 42.3437462,36.9628152 45.8642012,39.4223206 C49.3845039,41.8819785 49.3845039,45.8696312 45.8642012,48.3291366 C42.3437462,50.7887945 36.6361686,50.7887945 33.1157135,48.3291366 C29.5954109,45.8696312 29.5954109,41.8819785 33.1157135,39.4223206 Z M8.75673367,40.9068153 C11.103658,39.2670942 14.9087757,39.2670942 17.255761,40.9068153 C19.6025787,42.5465364 19.6025787,45.2050733 17.255761,46.8447944 C14.9087757,48.4845155 11.103658,48.4845155 8.75673367,46.8447944 C6.40980935,45.2050733 6.40980935,42.5465364 8.75673367,40.9068153 Z M48.611171,27.5466677 C52.1316261,25.0870097 57.839356,25.0870097 61.3596587,27.5466677 C64.8801138,30.006173 64.8801138,33.9939783 61.3596587,36.4534836 C57.839356,38.912989 52.1316261,38.912989 48.611171,36.4534836 C45.0908683,33.9939783 45.0908683,30.006173 48.611171,27.5466677 Z M20.1849783,28.2887624 C23.1186147,26.2392255 27.8750309,26.2392255 30.8086673,28.2887624 C33.7423036,30.3384519 33.7423036,33.6615467 30.8086673,35.7112363 C27.8750309,37.7607731 23.1186147,37.7607731 20.1849783,35.7112363 C17.251342,33.6615467 17.251342,30.3384519 20.1849783,28.2887624 Z M1.32014379,29.7732572 C3.08033322,28.5435045 5.93416772,28.5435045 7.69436478,29.7732572 C9.45454659,31.0031625 9.45454659,32.9969888 7.69436478,34.2267415 C5.93416772,35.4564941 3.08033322,35.4564941 1.32014379,34.2267415 C-0.440047168,32.9969888 -0.440048692,31.0031625 1.32014379,29.7732572 Z M33.1157135,15.6707858 C36.6361686,13.2112194 42.3437462,13.2112194 45.8642012,15.6707858 C49.3845039,18.1303369 49.3845039,22.1180202 45.8642012,24.5776781 C42.3437462,27.0371834 36.6361686,27.0371834 33.1157135,24.5776781 C29.5954109,22.1180202 29.5954109,18.1303369 33.1157135,15.6707858 Z M8.75673367,17.1552806 C11.103658,15.5155747 14.9087757,15.5155747 17.255761,17.1552806 C19.6025787,18.7949253 19.6025787,21.4534622 17.255761,23.0931833 C14.9087757,24.7329044 11.103658,24.7329044 8.75673367,23.0931833 C6.40982458,21.4534622 6.40980935,18.7949253 8.75673367,17.1552806 Z M20.1849783,4.53722765 C23.1186147,2.48759002 27.8750309,2.48759155 30.8086673,4.53722765 C33.7423036,6.58685612 33.7423036,9.90996619 30.8086673,11.9595947 C27.8750309,14.0092231 23.1186147,14.0092231 20.1849783,11.9595947 C17.251342,9.90996619 17.251342,6.58685612 20.1849783,4.53722765 Z" id="Combined-Shape" fill="#FFFFFF" fill-rule="nonzero"></path>
    </g>
</svg>