<?xml version="1.0" encoding="UTF-8"?>
<svg width="64px" height="64px" viewBox="0 0 64 64" version="1.1" xmlns="http://www.w3.org/2000/svg" xmlns:xlink="http://www.w3.org/1999/xlink">
    <title>Logotype 3</title>
    <g id="Logotype-3" stroke="none" stroke-width="1" fill="none" fill-rule="evenodd">
        <path d="M30.4426621,4.05861633 L30.409105,4 L16.4898006,4 L0,32.4675719 L11.3193852,52.4128003 L11.3332751,52.3885873 L15.612471,59.8526318 L48.3383176,60 L59.8309547,40.1552816 L59.7544997,40.1552816 L64,32.7501148 L47.7638674,4.13513981 L30.4426621,4.05861633 Z M41.2100147,23.0429724 L41.2968482,23.0429724 L33.1146082,8.73208818 L45.0708184,8.78488642 L58.6618162,32.7380954 L54.4078401,40.1584171 L43.2595964,40.1643397 L47.1465193,33.3848782 L41.2100147,23.0429724 Z M27.6081196,8.66153955 L33.1872577,18.381189 L25.4625367,18.3810148 L12.237658,41.4772409 L11.3355584,43.0465559 L5.34520663,32.4912623 L19.1486005,8.66153955 L27.6081196,8.66153955 Z M22.2439895,33.3336651 L28.1365584,23.0426241 L35.8633551,23.0429724 L41.8005516,33.3862718 L37.9127638,40.167301 L26.1651615,40.1737462 L22.2439895,33.3336651 Z M14.0041141,47.7240168 L16.2459057,43.8090036 L19.5796543,38.0099067 L23.4932155,44.836749 L35.239088,44.8303038 L35.2200608,44.8634007 L51.7343373,44.8830846 L45.6862638,55.3265456 L18.2918549,55.2030419 L14.0041141,47.7240168 Z" id="Shape" fill="#FFFFFF"></path>
    </g>
</svg>