<?xml version="1.0" encoding="UTF-8"?>
<svg width="64px" height="64px" viewBox="0 0 64 64" version="1.1" xmlns="http://www.w3.org/2000/svg" xmlns:xlink="http://www.w3.org/1999/xlink">
    <title>Logotype 5</title>
    <g id="Logotype-5" stroke="none" stroke-width="1" fill="none" fill-rule="evenodd">
        <g id="Group-3" transform="translate(0.000000, 20.500000)" fill="#FFFFFF" fill-rule="nonzero">
            <path d="M38.3873742,5.20638234 C36.7076851,3.5557631 34.7135747,2.24637533 32.5189941,1.35307214 C30.3243521,0.459768942 27.9722241,0 25.596767,0 C23.2213099,0 20.8691819,0.459768942 18.67454,1.35307214 C16.4799593,2.24637533 14.4858489,3.5557631 12.8061598,5.20638234 L25.596767,17.7755663 L38.3873742,5.20638234 Z" id="Path" fill-opacity="0.9"></path>
            <path d="M25.6128095,17.7936778 C27.2924986,19.4442971 29.2865477,20.7536247 31.4811896,21.6469279 C33.6757703,22.5402311 36.0279596,23 38.4034167,23 C40.7787513,23 43.1312468,22.5402311 45.3257662,21.6469279 C47.5202856,20.7536247 49.5145797,19.4442971 51.1941463,17.7936778 L38.4034167,5.22443374 L25.6128095,17.7936778 Z" id="Path"></path>
            <path d="M25.5812143,17.7909099 C23.9015252,19.4415292 21.9074149,20.7508568 19.7128342,21.64416 C17.5181923,22.5374632 15.1660642,22.9972321 12.7906072,22.9972321 C10.4151501,22.9972321 8.06302202,22.5374632 5.86838011,21.64416 C3.67379944,20.7508568 1.6796891,19.4415292 0,17.7909099 L12.7906072,5.22166586 L25.5812143,17.7909099 Z" id="Path"></path>
            <path d="M38.4189694,5.20915022 C40.0984748,3.55853098 42.0927688,2.24920338 44.2872883,1.35590019 C46.4818077,0.462596994 48.8343031,0.00282805134 51.2094541,0.00282805134 C53.5852173,0.00282805134 55.9371004,0.462596994 58.1316199,1.35590019 C60.3261393,2.24920338 62.3204334,3.55853098 64,5.20915022 L51.2094541,17.7783943 L38.4189694,5.20915022 Z" id="Path" fill-opacity="0.9"></path>
        </g>
    </g>
</svg>