<?xml version="1.0" encoding="UTF-8"?>
<svg width="64px" height="64px" viewBox="0 0 64 64" version="1.1" xmlns="http://www.w3.org/2000/svg" xmlns:xlink="http://www.w3.org/1999/xlink">
    <title>Logotype 6</title>
    <g id="Logotype-6" stroke="none" stroke-width="1" fill="none" fill-rule="evenodd">
        <g id="Group-2" fill="#FFFFFF" fill-rule="nonzero">
            <path d="M0,39.5234133 C0,36.3091911 0.632635291,33.1262578 1.8618633,30.1568 C3.09110552,27.1870578 4.892751,24.4888178 7.16405851,22.2159644 C9.43535181,19.9431111 12.1316661,18.14016 15.0992092,16.91008 C18.0668945,15.6801422 21.2474811,15.0469689 24.4596192,15.0469689 L24.4596192,39.5234133 L0,39.5234133 Z" id="Path"></path>
            <path d="M0,39.5234133 C0,42.7377778 0.632635291,45.9205689 1.8618633,48.8903111 C3.09110552,51.8599111 4.892751,54.5581511 7.16405851,56.8310044 C9.43535181,59.1038578 12.1316661,60.9068089 15.0992092,62.1368889 C18.0668945,63.3669689 21.2474811,64 24.4596192,64 L24.4596192,39.5234133 L0,39.5234133 Z" id="Path" fill-opacity="0.9"></path>
            <path d="M48.9188263,39.5234133 C48.9188263,42.7377778 48.28666,45.9205689 47.0575741,48.8903111 C45.8283461,51.8599111 44.0267859,54.5581511 41.7550804,56.8310044 C39.4838013,59.1038578 36.7874302,60.9068089 33.8197449,62.1368889 C30.8523439,63.3669689 27.6716152,64 24.4596192,64 L24.4596192,39.5234133 L48.9188263,39.5234133 Z" id="Path"></path>
            <path d="M64,18.3779556 C64,28.5277867 55.7772904,36.7559111 45.6346315,36.7559111 L27.2695472,36.7559111 L27.2695472,18.3779556 C27.2695472,8.22812444 35.4919726,0 45.6346315,0 C55.7772904,0 64,8.22812444 64,18.3779556 Z" id="Path" fill-opacity="0.9"></path>
        </g>
    </g>
</svg>