<?xml version="1.0" encoding="UTF-8"?>
<svg width="64px" height="64px" viewBox="0 0 64 64" version="1.1" xmlns="http://www.w3.org/2000/svg" xmlns:xlink="http://www.w3.org/1999/xlink">
    <title>Logotype 7</title>
    <g id="Logotype-7" stroke="none" stroke-width="1" fill="none" fill-rule="evenodd">
        <g id="Group-4" transform="translate(0.000000, 0.500000)" fill="#FFFFFF" fill-rule="nonzero">
            <polygon id="Path" fill-opacity="0.9" transform="translate(32.000001, 31.500004) rotate(120.000000) translate(-32.000001, -31.500004) " points="32.7066551 0.979604954 32.7066551 62.0204029 31.2933459 62.0204029 31.2933459 0.979604954"></polygon>
            <polygon id="Path" transform="translate(31.999999, 31.500000) rotate(140.000000) translate(-31.999999, -31.500000) " points="32.7066535 21.1643982 32.7066535 41.8356024 31.2933442 41.8356024 31.2933442 21.1643982"></polygon>
            <polygon id="Path" transform="translate(31.999999, 31.499997) rotate(180.000000) translate(-31.999999, -31.499997) " points="32.7066534 11.5219117 32.7066534 51.4780832 31.2933441 51.4780832 31.2933441 11.5219117"></polygon>
            <polygon id="Path" fill-opacity="0.9" transform="translate(31.999998, 31.500001) rotate(-160.000000) translate(-31.999998, -31.500001) " points="32.706653 4.89008563 32.706653 58.1099167 31.2933438 58.1099167 31.2933438 4.89008563"></polygon>
            <polygon id="Path" fill-opacity="0.9" transform="translate(31.999999, 31.500001) rotate(-150.000000) translate(-31.999999, -31.500001) " points="32.7066532 3.24145444 32.7066532 59.7585466 31.2933439 59.7585466 31.2933439 3.24145444"></polygon>
            <polygon id="Path" transform="translate(32.000000, 31.499998) rotate(-140.000000) translate(-32.000000, -31.499998) " points="32.7066542 13.0668748 32.7066542 49.933121 31.293345 49.933121 31.293345 13.0668748"></polygon>
            <polygon id="Path" transform="translate(31.999999, 31.499999) rotate(-70.000000) translate(-31.999999, -31.499999) " points="32.7066541 10.1933102 32.7066541 52.8066881 31.2933449 52.8066881 31.2933449 10.1933102"></polygon>
            <polygon id="Path" fill-opacity="0.9" transform="translate(31.999997, 31.500002) rotate(-50.000000) translate(-31.999997, -31.500002) " points="32.7066518 6.54224701 32.7066518 56.4577561 31.2933425 56.4577561 31.2933425 6.54224701"></polygon>
            <polygon id="Path" fill-opacity="0.9" transform="translate(31.999999, 31.500000) rotate(-40.000000) translate(-31.999999, -31.500000) " points="32.7066536 6.39154334 32.7066536 56.6084576 31.2933443 56.6084576 31.2933443 6.39154334"></polygon>
            <polygon id="Path" transform="translate(31.999999, 31.500000) rotate(-30.000000) translate(-31.999999, -31.500000) " points="32.706654 15.0204761 32.706654 47.9795239 31.2933448 47.9795239 31.2933448 15.0204761"></polygon>
            <polygon id="Path" transform="translate(31.999999, 31.500000) rotate(-20.000000) translate(-31.999999, -31.500000) " points="32.7066533 -1.76566004 32.7066533 64.76566 31.293344 64.76566 31.293344 -1.76566004"></polygon>
            <polygon id="Path" transform="translate(31.999998, 31.500001) rotate(-10.000000) translate(-31.999998, -31.500001) " points="32.706653 1.01851897 32.706653 61.9814821 31.2933437 61.9814821 31.2933437 1.01851897"></polygon>
            <polygon id="Path" transform="translate(31.999999, 31.500000) rotate(30.000000) translate(-31.999999, -31.500000) " points="32.7066535 22.7139971 32.7066535 40.2860031 31.2933442 40.2860031 31.2933442 22.7139971"></polygon>
            <polygon id="Path" fill-opacity="0.9" transform="translate(31.999999, 31.500000) rotate(60.000000) translate(-31.999999, -31.500000) " points="32.7066534 11.4359648 32.7066534 51.5640356 31.2933441 51.5640356 31.2933441 11.4359648"></polygon>
            <polygon id="Path" fill-opacity="0.9" transform="translate(32.000000, 31.500000) rotate(70.000000) translate(-32.000000, -31.500000) " points="32.7066546 -2.13073022 32.7066546 65.1307297 31.2933454 65.1307297 31.2933454 -2.13073022"></polygon>
            <polygon id="Path" fill-opacity="0.9" transform="translate(31.999999, 31.500000) rotate(100.000000) translate(-31.999999, -31.500000) " points="32.7066534 12.5505613 32.7066534 50.4494391 31.2933441 50.4494391 31.2933441 12.5505613"></polygon>
        </g>
    </g>
</svg>