<?xml version="1.0" encoding="UTF-8"?>
<svg width="24px" height="24px" viewBox="0 0 24 24" version="1.1" xmlns="http://www.w3.org/2000/svg" xmlns:xlink="http://www.w3.org/1999/xlink">
    <title>Brand Design Icon</title>
    <g id="Brand-Design-Icon" stroke="none" stroke-width="1" fill="none" fill-rule="evenodd">
        <path d="M23.3647786,1.63195691 C22.9646968,1.19748654 22.4045822,1 21.8044595,1 C21.2443449,1 20.6842304,1.19748654 20.2841486,1.59245961 L5.36109646,15.2585278 C4.88099827,15.2190305 4.3608919,15.2980251 3.76076916,15.5745063 C2.96060551,15.929982 2.60053187,16.5224417 2.24045822,17.1938959 C1.8403764,17.8653501 1.40028639,18.6157989 0.400081826,19.4057451 C0.120024548,19.6032316 0,19.9192101 0,20.2746858 C0,20.6301616 0.240049095,20.9066427 0.520106373,21.064632 C2.08042549,21.8940754 4.52092463,23 6.52133376,23 C7.28148922,23 7.96162833,22.8420108 8.4817347,22.4470377 C9.32190653,21.8150808 9.72198836,21.0251346 9.72198836,20.0771993 C9.72198836,19.9587074 9.72198836,19.8402154 9.68198018,19.6822262 L23.4047868,4.71274686 C24.2049504,3.8438061 24.2049504,2.46140036 23.3647786,1.63195691 Z M8.00163651,21.7755835 C6.84139922,22.6445242 4.20085917,22.0915619 0.880180016,20.3141831 C0.840171834,20.2746858 0.800163651,20.1956912 0.800163651,20.1561939 C0.800163651,20.1166966 0.800163651,20.037702 0.880180016,19.9982047 C2.00040913,19.1292639 2.5205155,18.2603232 2.92059733,17.5888689 C3.28067097,16.9964093 3.56072825,16.5224417 4.08083462,16.2854578 C4.48091645,16.1274686 4.84099009,16.048474 5.16105555,16.048474 C5.84119465,16.048474 6.36130103,16.3249551 6.40130921,16.3644524 C7.5615465,17.1938959 8.84180834,18.6947935 8.88181653,20.0771993 C8.92182471,20.7486535 8.64176743,21.3016158 8.00163651,21.7755835 Z M22.8446722,4.15978456 L9.44193108,18.7737882 C8.96183289,17.5888689 7.92162015,16.443447 6.8814074,15.7324955 L6.8814074,15.7324955 C6.84139922,15.7324955 6.6413583,15.5745063 6.32129284,15.4955117 L20.8442631,2.18491921 C21.3643695,1.67145422 22.2445495,1.67145422 22.8046641,2.22441652 C23.3247704,2.73788151 23.3247704,3.60682226 22.8446722,4.15978456 Z" id="Shape" fill="#1C211C" fill-rule="nonzero"></path>
    </g>
</svg>