<?xml version="1.0" encoding="UTF-8"?>
<svg width="24px" height="24px" viewBox="0 0 24 24" version="1.1" xmlns="http://www.w3.org/2000/svg" xmlns:xlink="http://www.w3.org/1999/xlink">
    <title>Print Design Icon</title>
    <g id="Print-Design-Icon" stroke="none" stroke-width="1" fill="none" fill-rule="evenodd">
        <path d="M20.4464286,0 C21.8607143,0 23,1.19601329 23,2.63122924 L23,2.63122924 L23,18.6179402 C23,18.6976744 23,18.7375415 22.9607143,18.8172757 L22.9607143,18.8172757 L20.0928571,23.6013289 C19.9357143,23.8405316 19.7,24 19.425,24 C19.15,24 18.9142857,23.8405316 18.7571429,23.6013289 L18.7571429,23.6013289 L15.8892857,18.8172757 C15.85,18.7774086 15.85,18.6976744 15.85,18.6179402 L15.85,2.63122924 C15.85,1.19601329 17.0285714,0 18.4428571,0 L18.4428571,0 Z M8.26785714,0.0797342193 C9.32857143,0.0797342193 10.2321429,0.956810631 10.2321429,2.0730897 L10.2321429,2.0730897 L10.2321429,21.9667774 C10.2321429,23.0830565 9.36785714,23.9601329 8.26785714,23.9601329 L8.26785714,23.9601329 L2.96428571,23.9601329 C1.86428571,23.9601329 1,23.0830565 1,21.9667774 L1,21.9667774 L1,2.0730897 C1,0.956810631 1.86428571,0.0797342193 2.96428571,0.0797342193 L2.96428571,0.0797342193 Z M22.2142857,5.10299003 L16.6357143,5.10299003 L16.6357143,18.4983389 L19.425,23.2026578 L22.2142857,18.4983389 L22.2142857,5.10299003 Z M8.26785714,0.877076412 L2.96428571,0.877076412 C2.29642857,0.877076412 1.78571429,1.39534884 1.78571429,2.0730897 L1.78571429,2.0730897 L1.78571429,3.46843854 L5.16428571,3.46843854 C5.4,3.46843854 5.55714286,3.62790698 5.55714286,3.86710963 C5.55714286,4.10631229 5.4,4.26578073 5.16428571,4.26578073 L5.16428571,4.26578073 L1.78571429,4.26578073 L1.78571429,7.37541528 L3.12142857,7.37541528 C3.35714286,7.37541528 3.51428571,7.53488372 3.51428571,7.77408638 C3.51428571,8.01328904 3.35714286,8.17275748 3.12142857,8.17275748 L3.12142857,8.17275748 L1.78571429,8.17275748 L1.78571429,11.282392 L5.16428571,11.282392 C5.4,11.282392 5.55714286,11.4418605 5.55714286,11.6810631 C5.55714286,11.9202658 5.4,12.0797342 5.16428571,12.0797342 L5.16428571,12.0797342 L1.78571429,12.0797342 L1.78571429,15.1893688 L3.12142857,15.1893688 C3.35714286,15.1893688 3.51428571,15.3488372 3.51428571,15.5880399 C3.51428571,15.8272425 3.35714286,15.986711 3.12142857,15.986711 L3.12142857,15.986711 L1.78571429,15.986711 L1.78571429,19.0963455 L5.16428571,19.0963455 C5.4,19.0963455 5.55714286,19.255814 5.55714286,19.4950166 C5.55714286,19.7342193 5.4,19.8936877 5.16428571,19.8936877 L5.16428571,19.8936877 L1.78571429,19.8936877 L1.78571429,21.9269103 C1.78571429,22.6046512 2.29642857,23.1229236 2.96428571,23.1229236 L2.96428571,23.1229236 L8.26785714,23.1229236 C8.93571429,23.1229236 9.44642857,22.6046512 9.44642857,21.9269103 L9.44642857,21.9269103 L9.44642857,2.0730897 C9.44642857,1.39534884 8.93571429,0.877076412 8.26785714,0.877076412 L8.26785714,0.877076412 Z M20.4464286,0.797342193 L18.4428571,0.797342193 C17.4607143,0.797342193 16.6357143,1.6345515 16.6357143,2.63122924 L16.6357143,2.63122924 L16.6357143,4.30564784 L22.2142857,4.30564784 L22.2142857,2.63122924 C22.2142857,1.6345515 21.4285714,0.797342193 20.4464286,0.797342193 L20.4464286,0.797342193 Z" id="Combined-Shape" fill="#1C211C" fill-rule="nonzero"></path>
    </g>
</svg>