<?xml version="1.0" encoding="UTF-8"?>
<svg width="24px" height="24px" viewBox="0 0 24 24" version="1.1" xmlns="http://www.w3.org/2000/svg" xmlns:xlink="http://www.w3.org/1999/xlink">
    <title>Webflow Icon</title>
    <g id="Webflow-Icon" stroke="none" stroke-width="1" fill="none" fill-rule="evenodd">
        <path d="M17.8018018,7.97920277 C17.8018018,7.97920277 15.8558559,14.2253033 15.6972973,14.7409012 C15.6396396,14.2105719 14.2126126,3 14.2126126,3 C10.8972973,3 9.12432432,5.41594454 8.18738739,7.9644714 C8.18738739,7.9644714 5.82342342,14.2253033 5.62162162,14.7556326 C5.60720721,14.2694974 5.26126126,8.03812825 5.26126126,8.03812825 C5.05945946,4.91507799 2.26306306,3.01473137 0,3.01473137 L2.73873874,20 C6.21261261,19.9852686 8.08648649,17.5840555 9.06666667,15.0355286 C9.06666667,15.0355286 11.1567568,9.51126516 11.2432432,9.26083189 C11.2576577,9.4965338 12.7423423,20 12.7423423,20 C16.2306306,20 18.1045045,17.7461005 19.1135135,15.2859619 L24,3.01473137 C20.554955,3.01473137 18.7387387,5.41594454 17.8018018,7.97920277 Z" id="Path" fill="#3A4443" fill-rule="nonzero"></path>
    </g>
</svg>