<?xml version="1.0" encoding="UTF-8"?>
<svg width="24px" height="24px" viewBox="0 0 24 24" version="1.1" xmlns="http://www.w3.org/2000/svg" xmlns:xlink="http://www.w3.org/1999/xlink">
    <title>Sketch Icon</title>
    <g id="Sketch-Icon" stroke="none" stroke-width="1" fill="none" fill-rule="evenodd">
        <path d="M0.890322581,7.40357143 L0,8.62142857 L4.37419355,8.62142857 L4.68387097,2.21785714 L0.890322581,7.40357143 L0.890322581,7.40357143 Z M18.7741935,1.62857143 L12.5419355,1 L19.1225806,8.26785714 L18.7741935,1.62857143 L18.7741935,1.62857143 Z M5.03225806,10.1142857 L4.49032258,9.05357143 L0.0387096774,9.05357143 L10.9548387,21.9392857 L5.03225806,10.1142857 Z M5.10967742,8.62142857 L18.8903226,8.62142857 L14.9419355,4.26071429 L12,1 L5.10967742,8.62142857 Z M19.5096774,9.05357143 L13.0451613,21.9785714 L23.9612903,9.09285714 L19.5096774,9.09285714 L19.5096774,9.05357143 Z M19.7419355,2.80714286 L19.316129,2.17857143 L19.3548387,3.04285714 L19.6258065,8.62142857 L24,8.62142857 L19.7419355,2.80714286 Z M5.07096774,4.025 L4.83870968,8.22857143 L11.4580645,1 L5.22580645,1.62857143 L5.07096774,4.025 Z M19.0451613,9.05357143 L4.95483871,9.05357143 L7.04516129,13.1785714 L12,23 L19.0451613,9.05357143 L19.0451613,9.05357143 Z" id="Shape" fill="#3A4443" fill-rule="nonzero"></path>
    </g>
</svg>