<?xml version="1.0" encoding="UTF-8"?>
<svg width="24px" height="24px" viewBox="0 0 24 24" version="1.1" xmlns="http://www.w3.org/2000/svg" xmlns:xlink="http://www.w3.org/1999/xlink">
    <title>Figma Icon</title>
    <g id="Figma-Icon" stroke="none" stroke-width="1" fill="none" fill-rule="evenodd">
        <path d="M16,7.93548387 C18.2307692,7.93548387 20,6.15483871 20,3.90967742 C20,1.66451613 18.1538462,0 16,0 L8,0 C5.76923077,0 4,1.78064516 4,4.02580645 C4,6.27096774 5.76923077,8.0516129 8,8.0516129 C5.76923077,8.0516129 4,9.83225806 4,12.0774194 C4,14.3225806 5.76923077,16.1032258 8,16.1032258 C5.76923077,16.1032258 4,17.883871 4,20.1290323 C4,22.3741935 5.80769231,24 8,24 C10.1923077,24 12,22.2193548 12,19.9741935 L12,8.0516129 L16,8.0516129 L16,7.93548387 Z M16,7.93548387 C13.7692308,7.93548387 12,9.71612903 12,11.9612903 C12,14.2064516 13.7692308,15.9870968 16,15.9870968 C18.2307692,15.9870968 20,14.2064516 20,11.9612903 L20,11.9612903 C19.8846154,9.71612903 18.1538462,7.93548387 16,7.93548387 Z" id="Shape" fill="#3A4443" fill-rule="nonzero"></path>
    </g>
</svg>