<?xml version="1.0" encoding="UTF-8"?>
<svg width="24px" height="24px" viewBox="0 0 24 24" version="1.1" xmlns="http://www.w3.org/2000/svg" xmlns:xlink="http://www.w3.org/1999/xlink">
    <title>Photoshop Icon</title>
    <g id="Photoshop-Icon" stroke="none" stroke-width="1" fill="none" fill-rule="evenodd">
        <path d="M19.75,0.5 C22.1,0.5 24,2.36752137 24,4.67735043 L24,19.3226496 C24,21.6324786 22.1,23.5 19.75,23.5 L4.25,23.5 C1.9,23.5 0,21.6324786 0,19.3226496 L0,4.67735043 C0,2.36752137 1.9,0.5 4.25,0.5 L19.75,0.5 Z M17.21,8.78589744 C16.5,8.78589744 15.91,8.89401709 15.44,9.12991453 C15.01,9.32649573 14.64,9.64102564 14.39,10.034188 C14.17,10.3978632 14.05,10.8008547 14.05,11.2235043 C14.04,11.5675214 14.12,11.9115385 14.28,12.2260684 C14.47,12.5602564 14.73,12.8452991 15.04,13.0615385 C15.48,13.3564103 15.95,13.5923077 16.46,13.7692308 C16.95,13.9559829 17.28,14.1034188 17.44,14.2311966 C17.6,14.3589744 17.68,14.4867521 17.68,14.624359 C17.68,14.8012821 17.57,14.9683761 17.41,15.0371795 C17.23,15.125641 16.96,15.1747863 16.58,15.1747863 C16.18,15.1747863 15.78,15.125641 15.4,15.0273504 C14.96,14.9290598 14.55,14.7717949 14.16,14.5457265 C14.13,14.5260684 14.1,14.5162393 14.07,14.5358974 C14.04,14.5555556 14.03,14.5948718 14.03,14.624359 L14.03,14.624359 L14.03,16.3346154 C14.02,16.4132479 14.07,16.4820513 14.14,16.5213675 C14.46,16.6688034 14.81,16.7769231 15.16,16.8358974 C15.61,16.924359 16.06,16.9636752 16.52,16.9636752 C17.24,16.9636752 17.84,16.8555556 18.33,16.6491453 C18.78,16.4722222 19.17,16.1675214 19.45,15.774359 C19.71,15.3910256 19.85,14.9290598 19.84,14.467094 C19.85,14.1132479 19.77,13.7692308 19.61,13.4547009 C19.42,13.1205128 19.15,12.8452991 18.82,12.6388889 C18.34,12.3440171 17.82,12.0982906 17.28,11.9213675 C17.04,11.8230769 16.8,11.7149573 16.57,11.5970085 C16.44,11.5282051 16.32,11.4397436 16.23,11.3316239 C16.17,11.2529915 16.13,11.1645299 16.13,11.0760684 C16.13,10.9876068 16.16,10.8893162 16.21,10.8106838 C16.28,10.7123932 16.39,10.6435897 16.52,10.6141026 C16.71,10.5649573 16.92,10.5354701 17.12,10.5452991 C17.5,10.5452991 17.87,10.5944444 18.24,10.6730769 C18.58,10.7418803 18.9,10.85 19.2,11.007265 C19.24,11.0269231 19.29,11.0269231 19.38,11.007265 C19.41,10.9876068 19.43,10.9482906 19.43,10.9089744 L19.43,10.9089744 L19.43,9.30683761 C19.43,9.26752137 19.42,9.22820513 19.41,9.18888889 C19.39,9.14957265 19.35,9.11025641 19.31,9.10042735 C19.04,8.99230769 18.75,8.91367521 18.45,8.87435897 C18.04,8.81538462 17.62,8.78589744 17.21,8.78589744 Z M8.6,6.3482906 C8.3,6.3482906 8,6.3482906 7.69,6.35811966 C7.38,6.36794872 7.09,6.36794872 6.82,6.37777778 C6.55,6.38760684 6.3,6.38760684 6.06,6.3974359 C5.83,6.40726496 5.67,6.40726496 5.5,6.40726496 C5.4475,6.40726496 5.4175,6.42938034 5.40578125,6.46946448 L5.4,6.51538462 L5.4,16.6294872 C5.4,16.7002564 5.4256,16.7395726 5.4768,16.7524684 L5.52,16.757265 L7.46,16.757265 C7.516,16.7494017 7.5592,16.7100855 7.56912,16.6594462 L7.57,16.6196581 L7.57,13.4645299 C7.76,13.4645299 7.9,13.4645299 8,13.474359 C8.1,13.484188 8.26,13.484188 8.5,13.484188 C9.32,13.484188 10.07,13.3957265 10.75,13.15 C11.4,12.9141026 11.96,12.5012821 12.36,11.9508547 C12.76,11.4004274 12.96,10.7025641 12.96,9.85726496 C12.96,9.41495726 12.88,8.99230769 12.73,8.57948718 C12.57,8.15683761 12.32,7.77350427 12,7.45897436 C11.62,7.09529915 11.16,6.82008547 10.66,6.65299145 C10.1,6.4465812 9.42,6.3482906 8.6,6.3482906 Z M8.67,8.28461538 C9.08,8.27478632 9.48,8.33376068 9.85,8.48119658 C10.14,8.58931624 10.38,8.78589744 10.55,9.04145299 C10.71,9.30683761 10.79,9.61153846 10.78,9.91623932 C10.78,10.3487179 10.68,10.682906 10.47,10.9286325 C10.25,11.174359 9.97,11.3611111 9.65,11.4495726 C9.354,11.5439316 9.0452,11.600547 8.73384,11.6194188 L8.5,11.6264957 L7.97,11.6264957 C7.89,11.6264957 7.80555556,11.6221273 7.71666667,11.6163026 L7.58,11.6068376 L7.58,8.3042735 C7.65,8.29444444 7.79,8.28461538 7.99,8.29444444 C8.18,8.28461538 8.41,8.28461538 8.67,8.28461538 Z" id="Combined-Shape" fill="#3A4443" fill-rule="nonzero"></path>
    </g>
</svg>