<?xml version="1.0" encoding="UTF-8"?>
<svg width="24px" height="24px" viewBox="0 0 24 24" version="1.1" xmlns="http://www.w3.org/2000/svg" xmlns:xlink="http://www.w3.org/1999/xlink">
    <title>Illustrator Icon</title>
    <g id="Illustrator-Icon" stroke="none" stroke-width="1" fill="none" fill-rule="evenodd">
        <path d="M19.75,0.5 C22.1,0.5 24,2.36752137 24,4.67735043 L24,19.3226496 C24,21.6324786 22.1,23.5 19.75,23.5 L4.25,23.5 C1.9,23.5 0,21.6324786 0,19.3226496 L0,4.67735043 C0,2.36752137 1.9,0.5 4.25,0.5 L19.75,0.5 Z M17.99,8.89401709 L16.01,8.89401709 C15.92,8.89401709 15.88,8.93333333 15.88,9.03162393 L15.88,9.03162393 L15.88,16.6 C15.88,16.6982906 15.93,16.757265 16.03,16.757265 L16.03,16.757265 L17.99,16.757265 C18.08,16.757265 18.12,16.7081197 18.12,16.6 L18.12,16.6 L18.12,9.03162393 C18.12,8.94316239 18.08,8.89401709 17.99,8.89401709 L17.99,8.89401709 Z M10.99,6.3482906 L8.4,6.3482906 C8.35,6.35811966 8.31,6.40726496 8.32,6.45641026 C8.32,6.67264957 8.3,6.88888889 8.26,7.09529915 C8.23333333,7.17393162 8.21111111,7.24819563 8.19037037,7.31809117 L8.16,7.41965812 L4.94,16.5311966 C4.915,16.6294872 4.93166667,16.6868234 5.00157407,16.7032051 L5.05,16.7081197 L6.93,16.7081197 C7.002,16.7159829 7.0676,16.679812 7.1012,16.6197368 L7.12,16.5705128 L7.88,14.2606838 L11.6,14.2606838 L12.42,16.6 C12.436,16.6550427 12.484,16.6975043 12.5384,16.7072547 L12.58,16.7081197 L14.67,16.7081197 C14.75,16.7081197 14.7852,16.6766667 14.78072,16.6087282 L14.77,16.5508547 L11.12,6.42692308 C11.11,6.37777778 11.07,6.3482906 10.99,6.3482906 Z M9.72,8.16666667 C9.79,8.4025641 9.86,8.65811966 9.94,8.93333333 C9.99333333,9.12336182 10.0511111,9.31339031 10.1133333,9.50924343 L10.21,9.80811966 L10.5,10.7123932 C10.59,11.007265 10.68,11.2923077 10.77,11.5576923 C10.8375,11.749359 10.899375,11.9354968 10.9514063,12.1036659 L11,12.2653846 L8.46,12.2653846 C8.61,11.8525641 8.76,11.3905983 8.9,10.8893162 C9.06,10.3978632 9.21,9.90641026 9.36,9.43461538 C9.45333333,9.152849 9.53333333,8.87108262 9.60296296,8.58931624 L9.7,8.16666667 L9.72,8.16666667 Z M17.02,5.60128205 C16.69,5.60128205 16.37,5.71923077 16.13,5.94529915 C15.89,6.17136752 15.76,6.48589744 15.77,6.82008547 C15.76,7.1542735 15.88,7.47863248 16.11,7.72435897 C16.35,7.95042735 16.67,8.07820513 17,8.06837607 C17.34,8.08803419 17.68,7.96025641 17.91,7.72435897 C18.15,7.47863248 18.27,7.1542735 18.26,6.82008547 C18.27,6.4957265 18.15,6.18119658 17.93,5.94529915 C17.71,5.71923077 17.41,5.60128205 17.02,5.60128205 Z" id="Combined-Shape" fill="#3A4443" fill-rule="nonzero"></path>
    </g>
</svg>